<?xml version="1.0" standalone="no"?>
<!DOCTYPE svg PUBLIC "-//W3C//DTD SVG 20010904//EN"
 "http://www.w3.org/TR/2001/REC-SVG-20010904/DTD/svg10.dtd">
<svg version="1.0" xmlns="http://www.w3.org/2000/svg"
 width="672.000000pt" height="672.000000pt" viewBox="0 0 672.000000 672.000000"
 preserveAspectRatio="xMidYMid meet">
<metadata>
Created by potrace 1.14, written by Peter Selinger 2001-2017
</metadata>
<g transform="translate(0.000000,672.000000) scale(0.100000,-0.100000)"
fill="#000000" stroke="none">
<path d="M3128 6715 c-1 -2 -32 -6 -68 -9 -68 -6 -134 -14 -185 -22 -16 -3
-50 -7 -75 -10 -25 -3 -50 -10 -56 -15 -6 -5 -13 -7 -16 -4 -7 7 -239 -51
-363 -91 -297 -97 -584 -237 -825 -403 -117 -81 -124 -86 -155 -113 -16 -16
-33 -28 -37 -28 -5 0 -16 -8 -26 -17 -10 -10 -48 -43 -83 -72 -133 -113 -362
-353 -445 -466 -16 -22 -37 -49 -47 -60 -10 -11 -48 -65 -85 -120 -37 -55 -69
-102 -72 -105 -5 -5 -16 -23 -57 -99 -14 -25 -29 -50 -33 -56 -12 -15 -142
-278 -144 -290 -1 -5 -5 -15 -9 -22 -4 -6 -23 -53 -42 -105 -20 -51 -40 -102
-45 -113 -9 -21 -63 -193 -66 -210 -1 -6 -11 -50 -23 -98 -13 -48 -25 -100
-27 -115 -3 -15 -7 -34 -9 -42 -3 -8 -7 -33 -10 -55 -4 -22 -9 -48 -12 -59 -3
-10 -7 -36 -8 -58 -2 -21 -6 -56 -9 -76 -3 -20 -8 -62 -11 -93 l-6 -57 113
-47 c62 -26 160 -68 218 -92 149 -64 154 -66 160 -68 7 -2 33 -13 233 -99 99
-42 185 -76 192 -76 7 0 18 -7 25 -15 7 -8 16 -13 20 -10 5 3 11 1 14 -4 3 -5
17 -12 31 -15 14 -4 51 -18 83 -32 95 -42 112 -50 242 -104 69 -28 139 -58
155 -65 17 -8 85 -37 153 -65 l124 -52 39 26 c21 14 43 26 49 26 5 0 10 4 10
10 0 5 3 9 8 8 4 -1 16 3 27 9 82 44 251 83 368 85 38 1 74 6 80 13 7 6 41 56
77 111 36 54 71 105 77 112 7 7 13 17 13 22 0 5 6 15 13 22 7 7 47 65 89 128
128 192 197 294 206 305 4 6 35 51 67 100 33 50 62 92 65 95 3 3 25 37 50 75
25 39 47 72 50 75 14 14 50 71 50 80 0 5 4 10 8 10 5 0 9 6 9 13 2 55 15 192
23 237 14 84 18 98 42 169 12 36 23 69 24 74 1 4 3 9 4 12 1 3 3 8 4 13 5 17
52 108 59 113 5 3 8 8 7 10 -4 8 24 59 32 59 4 0 8 5 8 11 0 18 105 152 171
218 67 67 179 155 239 187 19 10 37 22 40 25 10 13 224 104 253 108 4 1 8 1
10 2 13 4 38 9 67 14 19 3 42 8 50 11 21 7 145 17 210 17 113 -1 228 -17 340
-47 258 -71 517 -263 680 -503 65 -97 148 -272 165 -352 3 -12 8 -31 11 -43
35 -132 49 -344 31 -481 -45 -359 -244 -686 -544 -893 -70 -49 -252 -140 -294
-148 -13 -2 -35 -9 -49 -15 -45 -19 -188 -42 -280 -45 -73 -3 -96 -8 -118 -24
-15 -11 -103 -76 -197 -144 -93 -67 -179 -131 -189 -140 -11 -10 -23 -18 -27
-18 -4 0 -14 -6 -21 -13 -7 -7 -112 -84 -233 -172 -263 -190 -256 -185 -322
-235 -29 -22 -55 -40 -58 -40 -22 0 -39 -38 -41 -89 -2 -76 -12 -159 -23 -198
-5 -18 -7 -33 -4 -33 3 0 0 -7 -7 -15 -7 -8 -9 -15 -4 -15 4 0 3 -5 -4 -12 -7
-7 -12 -22 -12 -33 0 -12 -3 -25 -7 -29 -5 -4 -8 -11 -8 -14 -2 -18 -71 -143
-111 -199 -176 -247 -447 -387 -749 -387 -85 0 -137 5 -195 19 -14 3 -35 8
-48 11 -42 9 -137 47 -187 76 -27 16 -60 34 -72 40 -13 6 -23 15 -23 20 0 4
-6 8 -13 8 -18 0 -157 137 -206 203 -48 64 -100 162 -128 242 -24 67 -37 116
-35 128 2 7 -31 23 -118 60 -19 8 -96 40 -170 72 -74 31 -148 62 -165 70 -16
7 -86 37 -155 65 -130 54 -313 132 -365 155 -29 13 -85 37 -95 40 -3 1 -16 7
-30 13 -14 5 -57 24 -96 40 l-72 30 20 -62 c10 -33 21 -68 23 -77 1 -8 10 -31
18 -51 9 -20 13 -39 9 -42 -3 -3 -1 -6 5 -6 5 0 10 -6 10 -13 0 -12 63 -175
83 -217 4 -8 35 -71 69 -140 34 -69 71 -141 83 -160 12 -19 22 -37 23 -40 0
-3 17 -31 38 -63 20 -31 37 -61 37 -66 0 -5 3 -11 8 -13 4 -2 27 -32 51 -68
25 -36 48 -66 53 -68 4 -2 8 -8 8 -14 0 -11 149 -197 214 -267 70 -75 219
-221 260 -254 21 -18 54 -47 72 -64 19 -18 38 -33 43 -33 5 0 11 -4 13 -8 10
-24 370 -272 395 -272 7 0 13 -4 13 -9 0 -5 15 -15 34 -21 19 -6 36 -15 38
-19 4 -11 239 -124 325 -157 106 -40 227 -85 238 -88 6 -2 30 -8 55 -15 25 -8
50 -14 55 -16 6 -1 17 -5 25 -8 16 -6 110 -28 145 -34 11 -1 63 -12 115 -22
52 -11 121 -23 152 -26 31 -3 66 -8 78 -10 116 -22 592 -23 708 0 10 2 43 6
73 9 30 3 63 8 74 10 11 2 58 11 105 20 47 9 95 18 108 21 12 3 30 7 40 9 40
9 108 27 122 33 8 3 22 7 31 9 39 8 185 57 197 66 6 6 12 8 12 5 0 -3 41 12
92 34 50 21 98 39 105 39 7 0 13 5 13 10 0 6 6 10 13 10 8 0 44 16 80 35 37
20 67 32 67 28 0 -4 4 -3 8 3 4 6 39 28 77 49 182 99 447 286 576 405 120 111
272 267 334 341 18 21 164 208 183 234 34 47 122 187 122 195 0 5 4 10 9 10 5
0 11 8 14 18 4 9 17 35 31 57 25 40 166 320 166 330 0 2 11 28 24 57 13 29 40
103 61 163 20 61 40 117 43 125 3 8 6 21 8 29 1 8 9 35 18 60 8 25 17 57 20
71 6 25 24 108 32 145 2 11 6 31 10 45 3 14 7 36 9 50 1 14 5 39 8 55 3 17 9
50 12 75 3 25 8 52 10 60 19 69 27 569 13 720 -9 83 -25 211 -32 250 -3 14 -8
43 -11 65 -10 62 -11 69 -18 90 -3 11 -9 36 -12 55 -3 19 -11 53 -17 75 -6 22
-12 45 -14 50 -18 86 -87 290 -142 419 -26 61 -47 113 -47 116 -3 21 -145 283
-208 385 -47 74 -180 264 -218 310 -142 171 -309 345 -433 450 -32 28 -67 58
-77 68 -11 9 -23 17 -28 17 -5 0 -11 4 -13 8 -5 12 -113 93 -213 159 -262 174
-517 296 -820 393 -50 16 -99 31 -110 33 -11 2 -39 9 -62 16 -53 15 -216 50
-263 57 -19 2 -44 7 -55 9 -11 2 -47 7 -80 10 -33 4 -73 8 -90 11 -35 6 -531
14 -537 9z"/>
<path d="M4448 5074 c-2 -1 -30 -4 -63 -5 -89 -4 -192 -30 -285 -72 -56 -25
-170 -99 -170 -109 0 -4 -4 -8 -10 -8 -21 0 -179 -181 -180 -207 0 -6 -3 -13
-7 -15 -12 -5 -50 -85 -74 -153 -42 -122 -56 -288 -35 -420 19 -116 91 -283
164 -375 79 -101 221 -214 312 -250 19 -7 40 -17 45 -21 6 -4 51 -17 100 -29
122 -31 310 -31 390 0 14 5 25 8 25 5 0 -9 198 79 210 94 3 3 23 18 45 32 57
37 148 129 193 197 51 74 92 153 92 174 0 9 4 19 9 22 12 8 35 95 47 174 50
356 -133 711 -451 875 -67 34 -160 67 -190 67 -14 0 -25 3 -25 8 0 4 -15 7
-32 7 -18 -1 -50 2 -70 6 -21 3 -39 5 -40 3z m137 -230 c157 -39 303 -147 381
-279 28 -49 71 -150 79 -191 13 -58 15 -200 4 -254 -12 -65 -17 -85 -19 -85
-1 0 -3 -8 -5 -17 -4 -23 -60 -131 -82 -160 -42 -53 -141 -146 -184 -171 -154
-90 -318 -113 -486 -68 -90 24 -214 98 -268 160 -16 19 -35 40 -42 46 -35 35
-107 173 -119 230 -31 134 -28 257 6 368 71 229 281 407 510 433 24 3 45 6 47
7 6 7 126 -6 178 -19z"/>
<path d="M2275 2813 c-60 -11 -145 -36 -145 -43 0 -5 10 -12 23 -15 21 -7 159
-64 254 -106 24 -11 45 -19 47 -19 13 0 156 -73 181 -92 78 -61 138 -137 174
-222 57 -131 48 -332 -20 -453 -74 -132 -198 -233 -319 -259 -14 -3 -36 -8
-50 -11 -91 -21 -216 1 -337 57 -24 11 -45 20 -48 20 -3 0 -24 9 -48 19 -68
32 -235 101 -242 101 -8 0 37 -84 48 -88 4 -2 7 -8 7 -13 0 -9 55 -72 105
-121 60 -59 181 -123 290 -155 80 -23 247 -22 335 1 78 20 187 69 218 98 12
12 22 19 22 15 0 -12 112 98 145 143 61 83 108 184 131 281 3 13 8 76 9 139 4
139 -14 223 -78 350 -59 120 -178 239 -297 298 -47 24 -95 44 -108 47 -12 2
-26 6 -30 9 -24 14 -217 28 -267 19z"/>
</g>
</svg>
