<svg width="41" height="42" viewBox="0 0 41 42" fill="none" xmlns="http://www.w3.org/2000/svg">
<g clip-path="url(#clip0_1_12)">
<path d="M20.4645 0C9.6767 0 0.839268 8.49929 0 19.2996L11.0065 23.9494C11.9389 23.2971 13.0663 22.9171 14.2779 22.9171C14.3872 22.9171 14.4951 22.9201 14.6015 22.9261L19.4967 15.676V15.5743C19.4967 11.2117 22.9705 7.66148 27.2407 7.66148C31.511 7.66148 34.9848 11.2117 34.9848 15.5743C34.9848 19.9369 31.511 23.4886 27.2407 23.4886C27.1816 23.4886 27.124 23.4871 27.0649 23.4856L20.0833 28.5738C20.0878 28.6681 20.0907 28.7623 20.0907 28.8551C20.0907 32.1315 17.4828 34.7961 14.2779 34.7961C11.4646 34.7961 9.11078 32.7434 8.57885 30.0265L0.706285 26.7007C3.1443 35.5082 11.0641 41.9653 20.4645 41.9653C31.8065 41.9653 41 32.5699 41 20.9827C41 9.39395 31.8065 0 20.4645 0ZM12.8689 31.8377L10.3466 30.7725C10.7929 31.724 11.5671 32.5199 12.594 32.9568C14.8134 33.9023 17.3725 32.8266 18.2975 30.557C18.7452 29.4589 18.7482 28.2471 18.3049 27.146C17.8616 26.0448 17.0238 25.1861 15.9496 24.7283C14.8813 24.275 13.7377 24.2914 12.7329 24.6789L15.3394 25.78C16.9766 26.4772 17.7508 28.3982 17.0682 30.0708C16.387 31.7434 14.506 32.5349 12.8689 31.8377ZM32.4011 15.5744C32.4011 12.6675 30.0857 10.3007 27.2413 10.3007C24.3955 10.3007 22.0801 12.6675 22.0801 15.5744C22.0801 18.4814 24.3955 20.8467 27.2413 20.8467C30.0857 20.8467 32.4011 18.4814 32.4011 15.5744ZM23.373 15.5655C23.373 13.3782 25.1092 11.6053 27.2487 11.6053C29.3897 11.6053 31.1259 13.3782 31.1259 15.5655C31.1259 17.7528 29.3897 19.5256 27.2487 19.5256C25.1092 19.5256 23.373 17.7528 23.373 15.5655Z" fill="#66C0F4"/>
</g>
<defs>
<clipPath id="clip0_1_12">
<rect width="41" height="42" fill="white"/>
</clipPath>
</defs>
</svg>
